<svg xmlns="http://www.w3.org/2000/svg" xmlns:xlink="http://www.w3.org/1999/xlink" width="586" zoomAndPan="magnify" viewBox="0 0 439.5 185.999996" height="248" preserveAspectRatio="xMidYMid meet" version="1.0"><defs><g/><clipPath id="6d94070a8b"><path d="M 0 0.105469 L 439 0.105469 L 439 185.894531 L 0 185.894531 Z M 0 0.105469 " clip-rule="nonzero"/></clipPath></defs><g clip-path="url(#6d94070a8b)"><path fill="#ffffff" d="M 0 0.105469 L 439 0.105469 L 439 185.894531 L 0 185.894531 Z M 0 0.105469 " fill-opacity="1" fill-rule="nonzero"/><path fill="#ffffff" d="M 0 0.105469 L 439 0.105469 L 439 185.894531 L 0 185.894531 Z M 0 0.105469 " fill-opacity="1" fill-rule="nonzero"/></g><g fill="#4682b4" fill-opacity="1"><g transform="translate(187.247361, 172.47922)"><g><path d="M 7.859375 0 L 0.75 0 L 6.90625 -21.765625 C 7.132812 -22.671875 7.207031 -23.316406 7.125 -23.703125 C 7.039062 -24.085938 6.78125 -24.28125 6.34375 -24.28125 C 5.738281 -24.28125 5.1875 -23.988281 4.6875 -23.40625 C 4.1875 -22.820312 3.648438 -21.789062 3.078125 -20.3125 L 2.109375 -17.734375 L 1.15625 -17.734375 L 2.515625 -21.5625 C 3.023438 -22.90625 3.628906 -23.945312 4.328125 -24.6875 C 5.035156 -25.425781 5.832031 -25.953125 6.71875 -26.265625 C 7.613281 -26.585938 8.53125 -26.75 9.46875 -26.75 C 10.550781 -26.75 11.375 -26.539062 11.9375 -26.125 C 12.507812 -25.707031 12.894531 -25.144531 13.09375 -24.4375 C 13.300781 -23.726562 13.378906 -22.960938 13.328125 -22.140625 C 13.273438 -21.316406 13.148438 -20.503906 12.953125 -19.703125 Z M 20.765625 -25.65625 C 20.085938 -25.65625 19.363281 -25.453125 18.59375 -25.046875 C 17.820312 -24.640625 17.03125 -23.914062 16.21875 -22.875 C 15.414062 -21.832031 14.566406 -20.382812 13.671875 -18.53125 C 12.785156 -16.6875 11.878906 -14.328125 10.953125 -11.453125 C 10.035156 -8.585938 9.085938 -5.125 8.109375 -1.0625 L 9.21875 -7.859375 C 10.289062 -11.554688 11.265625 -14.613281 12.140625 -17.03125 C 13.015625 -19.445312 13.894531 -21.367188 14.78125 -22.796875 C 15.675781 -24.222656 16.617188 -25.238281 17.609375 -25.84375 C 18.597656 -26.445312 19.734375 -26.75 21.015625 -26.75 C 22.328125 -26.75 23.332031 -26.363281 24.03125 -25.59375 C 24.738281 -24.820312 25.09375 -23.847656 25.09375 -22.671875 C 25.09375 -21.734375 24.878906 -20.867188 24.453125 -20.078125 C 24.035156 -19.285156 23.46875 -18.644531 22.75 -18.15625 C 22.03125 -17.675781 21.21875 -17.4375 20.3125 -17.4375 C 19.332031 -17.4375 18.570312 -17.695312 18.03125 -18.21875 C 17.5 -18.738281 17.234375 -19.484375 17.234375 -20.453125 C 17.234375 -21.265625 17.414062 -22.015625 17.78125 -22.703125 C 18.15625 -23.390625 18.660156 -23.984375 19.296875 -24.484375 C 19.929688 -24.992188 20.640625 -25.332031 21.421875 -25.5 C 21.316406 -25.53125 21.210938 -25.5625 21.109375 -25.59375 C 21.015625 -25.632812 20.898438 -25.65625 20.765625 -25.65625 Z M 20.765625 -25.65625 "/></g></g></g><g fill="#4682b4" fill-opacity="1"><g transform="translate(210.927518, 172.47922)"><g><path d="M 6.59375 -10.9375 C 7.976562 -11.46875 9.289062 -12.066406 10.53125 -12.734375 C 11.769531 -13.410156 12.828125 -14.15625 13.703125 -14.96875 C 15.015625 -16.144531 16.066406 -17.515625 16.859375 -19.078125 C 17.648438 -20.640625 18.046875 -22.328125 18.046875 -24.140625 C 18.046875 -24.804688 17.976562 -25.25 17.84375 -25.46875 C 17.707031 -25.6875 17.503906 -25.796875 17.234375 -25.796875 C 16.492188 -25.796875 15.695312 -25.414062 14.84375 -24.65625 C 13.988281 -23.90625 13.140625 -22.898438 12.296875 -21.640625 C 11.453125 -20.378906 10.6875 -18.941406 10 -17.328125 C 9.3125 -15.722656 8.753906 -14.046875 8.328125 -12.296875 C 7.910156 -10.546875 7.703125 -8.847656 7.703125 -7.203125 C 7.703125 -5.328125 8.0625 -4.039062 8.78125 -3.34375 C 9.507812 -2.65625 10.445312 -2.3125 11.59375 -2.3125 C 12.5 -2.3125 13.625 -2.613281 14.96875 -3.21875 C 16.3125 -3.820312 17.640625 -4.898438 18.953125 -6.453125 L 19.75 -6.046875 C 19.039062 -4.941406 18.113281 -3.867188 16.96875 -2.828125 C 15.832031 -1.785156 14.507812 -0.9375 13 -0.28125 C 11.488281 0.375 9.84375 0.703125 8.0625 0.703125 C 6.550781 0.703125 5.195312 0.4375 4 -0.09375 C 2.8125 -0.632812 1.875 -1.429688 1.1875 -2.484375 C 0.5 -3.546875 0.15625 -4.851562 0.15625 -6.40625 C 0.15625 -8.1875 0.445312 -10.015625 1.03125 -11.890625 C 1.625 -13.773438 2.457031 -15.597656 3.53125 -17.359375 C 4.601562 -19.117188 5.894531 -20.710938 7.40625 -22.140625 C 8.914062 -23.566406 10.59375 -24.691406 12.4375 -25.515625 C 14.289062 -26.335938 16.257812 -26.75 18.34375 -26.75 C 19.820312 -26.75 21.0625 -26.421875 22.0625 -25.765625 C 23.070312 -25.117188 23.578125 -24.125 23.578125 -22.78125 C 23.578125 -21.46875 23.21875 -20.238281 22.5 -19.09375 C 21.78125 -17.957031 20.8125 -16.914062 19.59375 -15.96875 C 18.382812 -15.03125 17.03125 -14.191406 15.53125 -13.453125 C 14.039062 -12.710938 12.515625 -12.070312 10.953125 -11.53125 C 9.390625 -11 7.921875 -10.582031 6.546875 -10.28125 Z M 6.59375 -10.9375 "/></g></g></g><g fill="#4682b4" fill-opacity="1"><g transform="translate(234.557295, 172.47922)"><g><path d="M 8.8125 -2.015625 C 9.351562 -2.015625 9.941406 -2.300781 10.578125 -2.875 C 11.222656 -3.445312 11.878906 -4.273438 12.546875 -5.359375 C 13.222656 -6.453125 13.878906 -7.785156 14.515625 -9.359375 C 15.148438 -10.941406 15.738281 -12.773438 16.28125 -14.859375 L 15.171875 -9.375 C 14.328125 -6.882812 13.398438 -4.898438 12.390625 -3.421875 C 11.390625 -1.941406 10.316406 -0.882812 9.171875 -0.25 C 8.023438 0.382812 6.832031 0.703125 5.59375 0.703125 C 3.707031 0.703125 2.296875 0.148438 1.359375 -0.953125 C 0.421875 -2.066406 -0.046875 -3.582031 -0.046875 -5.5 C -0.046875 -7.3125 0.257812 -9.207031 0.875 -11.1875 C 1.5 -13.164062 2.335938 -15.078125 3.390625 -16.921875 C 4.453125 -18.773438 5.644531 -20.441406 6.96875 -21.921875 C 8.300781 -23.398438 9.710938 -24.570312 11.203125 -25.4375 C 12.703125 -26.3125 14.175781 -26.75 15.625 -26.75 C 16.726562 -26.75 17.582031 -26.3125 18.1875 -25.4375 C 18.789062 -24.570312 18.976562 -23.210938 18.75 -21.359375 L 18.1875 -21.0625 C 18.351562 -22.269531 18.296875 -23.207031 18.015625 -23.875 C 17.734375 -24.550781 17.253906 -24.890625 16.578125 -24.890625 C 15.910156 -24.890625 15.164062 -24.503906 14.34375 -23.734375 C 13.519531 -22.960938 12.703125 -21.90625 11.890625 -20.5625 C 11.085938 -19.21875 10.335938 -17.695312 9.640625 -16 C 8.953125 -14.300781 8.40625 -12.519531 8 -10.65625 C 7.601562 -8.789062 7.40625 -6.953125 7.40625 -5.140625 C 7.40625 -3.992188 7.519531 -3.1875 7.75 -2.71875 C 7.988281 -2.25 8.34375 -2.015625 8.8125 -2.015625 Z M 19.5 -26 C 20.945312 -26.03125 22.257812 -26.101562 23.4375 -26.21875 C 24.613281 -26.34375 25.738281 -26.519531 26.8125 -26.75 L 20.203125 -4.28125 C 20.109375 -3.84375 20.035156 -3.429688 19.984375 -3.046875 C 19.929688 -2.660156 19.976562 -2.347656 20.125 -2.109375 C 20.28125 -1.878906 20.539062 -1.765625 20.90625 -1.765625 C 21.34375 -1.765625 21.832031 -2.023438 22.375 -2.546875 C 22.914062 -3.066406 23.46875 -4.132812 24.03125 -5.75 L 24.9375 -8.15625 L 25.90625 -8.15625 L 24.640625 -4.484375 C 24.171875 -3.109375 23.566406 -2.050781 22.828125 -1.3125 C 22.085938 -0.570312 21.296875 -0.0507812 20.453125 0.25 C 19.617188 0.550781 18.796875 0.703125 17.984375 0.703125 C 16.242188 0.703125 15.003906 0.179688 14.265625 -0.859375 C 13.753906 -1.597656 13.523438 -2.507812 13.578125 -3.59375 C 13.628906 -4.6875 13.859375 -5.941406 14.265625 -7.359375 Z M 19.5 -26 "/></g></g></g><g fill="#4682b4" fill-opacity="1"><g transform="translate(262.671182, 172.47922)"><g><path d="M 7.859375 0 L 0.75 0 L 6.90625 -21.765625 C 7.039062 -22.203125 7.113281 -22.613281 7.125 -23 C 7.144531 -23.382812 7.101562 -23.691406 7 -23.921875 C 6.90625 -24.160156 6.65625 -24.28125 6.25 -24.28125 C 5.675781 -24.28125 5.132812 -23.976562 4.625 -23.375 C 4.125 -22.769531 3.609375 -21.75 3.078125 -20.3125 L 2.109375 -17.734375 L 1.15625 -17.734375 L 2.515625 -21.5625 C 3.023438 -22.90625 3.628906 -23.945312 4.328125 -24.6875 C 5.035156 -25.425781 5.828125 -25.953125 6.703125 -26.265625 C 7.578125 -26.585938 8.453125 -26.75 9.328125 -26.75 C 10.460938 -26.75 11.332031 -26.539062 11.9375 -26.125 C 12.539062 -25.707031 12.941406 -25.144531 13.140625 -24.4375 C 13.347656 -23.726562 13.414062 -22.960938 13.34375 -22.140625 C 13.28125 -21.316406 13.148438 -20.503906 12.953125 -19.703125 Z M 20.0625 -20.90625 C 20.226562 -21.476562 20.351562 -21.988281 20.4375 -22.4375 C 20.519531 -22.894531 20.507812 -23.257812 20.40625 -23.53125 C 20.300781 -23.800781 20.050781 -23.9375 19.65625 -23.9375 C 18.882812 -23.9375 18.0625 -23.472656 17.1875 -22.546875 C 16.3125 -21.628906 15.410156 -20.328125 14.484375 -18.640625 C 13.566406 -16.960938 12.648438 -14.960938 11.734375 -12.640625 C 10.828125 -10.328125 9.972656 -7.796875 9.171875 -5.046875 L 9.421875 -8.515625 C 10.835938 -12.984375 12.21875 -16.550781 13.5625 -19.21875 C 14.90625 -21.894531 16.347656 -23.816406 17.890625 -24.984375 C 19.429688 -26.160156 21.175781 -26.75 23.125 -26.75 C 24.238281 -26.75 25.085938 -26.546875 25.671875 -26.140625 C 26.265625 -25.742188 26.660156 -25.191406 26.859375 -24.484375 C 27.054688 -23.785156 27.113281 -22.976562 27.03125 -22.0625 C 26.945312 -21.15625 26.769531 -20.1875 26.5 -19.15625 L 21.109375 0 L 13.90625 0 Z M 33.515625 -20.90625 C 33.816406 -21.78125 33.957031 -22.503906 33.9375 -23.078125 C 33.914062 -23.648438 33.671875 -23.9375 33.203125 -23.9375 C 32.566406 -23.9375 31.835938 -23.539062 31.015625 -22.75 C 30.191406 -21.957031 29.304688 -20.765625 28.359375 -19.171875 C 27.421875 -17.578125 26.445312 -15.5625 25.4375 -13.125 C 24.4375 -10.6875 23.429688 -7.820312 22.421875 -4.53125 L 22.53125 -7.25 C 23.738281 -11.082031 24.882812 -14.257812 25.96875 -16.78125 C 27.0625 -19.300781 28.171875 -21.289062 29.296875 -22.75 C 30.421875 -24.207031 31.585938 -25.238281 32.796875 -25.84375 C 34.015625 -26.445312 35.3125 -26.75 36.6875 -26.75 C 38.125 -26.75 39.160156 -26.40625 39.796875 -25.71875 C 40.441406 -25.03125 40.769531 -24.113281 40.78125 -22.96875 C 40.800781 -21.832031 40.578125 -20.5625 40.109375 -19.15625 L 35.171875 -4.28125 C 34.835938 -3.3125 34.757812 -2.648438 34.9375 -2.296875 C 35.125 -1.941406 35.421875 -1.765625 35.828125 -1.765625 C 36.265625 -1.765625 36.75 -2.003906 37.28125 -2.484375 C 37.820312 -2.972656 38.394531 -4.0625 39 -5.75 L 39.90625 -8.15625 L 40.859375 -8.15625 L 39.609375 -4.484375 C 39.140625 -3.078125 38.523438 -2.003906 37.765625 -1.265625 C 37.015625 -0.523438 36.207031 -0.015625 35.34375 0.265625 C 34.488281 0.554688 33.640625 0.703125 32.796875 0.703125 C 31.828125 0.703125 31.003906 0.539062 30.328125 0.21875 C 29.660156 -0.09375 29.140625 -0.535156 28.765625 -1.109375 C 28.335938 -1.773438 28.144531 -2.628906 28.1875 -3.671875 C 28.238281 -4.710938 28.5 -5.925781 28.96875 -7.3125 Z M 33.515625 -20.90625 "/></g></g></g><g fill="#eb648d" fill-opacity="1"><g transform="translate(305.802018, 172.47922)"><g><path d="M 29.03125 -36.03125 C 28.6875 -35.15625 28.238281 -33.882812 27.6875 -32.21875 C 27.132812 -30.5625 26.585938 -28.40625 26.046875 -25.75 L 25.046875 -25.75 C 25.148438 -26.21875 25.222656 -26.703125 25.265625 -27.203125 C 25.316406 -27.710938 25.34375 -28.1875 25.34375 -28.625 C 25.34375 -29.863281 25.097656 -30.992188 24.609375 -32.015625 C 24.128906 -33.046875 23.367188 -33.867188 22.328125 -34.484375 C 21.285156 -35.109375 19.90625 -35.421875 18.1875 -35.421875 C 16.175781 -35.421875 14.5 -34.898438 13.15625 -33.859375 C 11.8125 -32.816406 11.140625 -31.207031 11.140625 -29.03125 C 11.140625 -27.75 11.445312 -26.5625 12.0625 -25.46875 C 12.6875 -24.375 13.476562 -23.332031 14.4375 -22.34375 C 15.394531 -21.351562 16.421875 -20.363281 17.515625 -19.375 C 18.609375 -18.382812 19.628906 -17.367188 20.578125 -16.328125 C 21.535156 -15.285156 22.328125 -14.179688 22.953125 -13.015625 C 23.578125 -11.859375 23.890625 -10.578125 23.890625 -9.171875 C 23.890625 -7.421875 23.5 -5.925781 22.71875 -4.6875 C 21.945312 -3.445312 20.941406 -2.429688 19.703125 -1.640625 C 18.460938 -0.847656 17.09375 -0.257812 15.59375 0.125 C 14.101562 0.507812 12.617188 0.703125 11.140625 0.703125 C 9.796875 0.703125 8.671875 0.578125 7.765625 0.328125 C 6.859375 0.078125 6.097656 -0.226562 5.484375 -0.59375 C 4.878906 -0.96875 4.378906 -1.304688 3.984375 -1.609375 C 3.609375 -1.910156 3.257812 -2.113281 2.9375 -2.21875 C 2.625 -2.320312 2.367188 -2.375 2.171875 -2.375 C 1.734375 -2.375 1.367188 -2.144531 1.078125 -1.6875 C 0.796875 -1.238281 0.46875 -0.554688 0.09375 0.359375 L -0.90625 0.359375 C -0.601562 -0.378906 -0.285156 -1.234375 0.046875 -2.203125 C 0.378906 -3.179688 0.75 -4.4375 1.15625 -5.96875 C 1.5625 -7.5 2.015625 -9.421875 2.515625 -11.734375 L 3.53125 -11.734375 C 3.394531 -11.035156 3.273438 -10.359375 3.171875 -9.703125 C 3.078125 -9.046875 3.046875 -8.363281 3.078125 -7.65625 C 3.171875 -5.375 3.875 -3.578125 5.1875 -2.265625 C 6.5 -0.953125 8.53125 -0.296875 11.28125 -0.296875 C 13.46875 -0.296875 15.25 -0.800781 16.625 -1.8125 C 18 -2.820312 18.6875 -4.414062 18.6875 -6.59375 C 18.6875 -8.007812 18.410156 -9.269531 17.859375 -10.375 C 17.304688 -11.488281 16.582031 -12.523438 15.6875 -13.484375 C 14.800781 -14.441406 13.863281 -15.375 12.875 -16.28125 C 11.882812 -17.1875 10.941406 -18.132812 10.046875 -19.125 C 9.160156 -20.113281 8.441406 -21.210938 7.890625 -22.421875 C 7.335938 -23.628906 7.0625 -25.007812 7.0625 -26.5625 C 7.0625 -28.164062 7.378906 -29.582031 8.015625 -30.8125 C 8.648438 -32.039062 9.492188 -33.066406 10.546875 -33.890625 C 11.609375 -34.710938 12.796875 -35.332031 14.109375 -35.75 C 15.421875 -36.164062 16.765625 -36.375 18.140625 -36.375 C 19.546875 -36.375 20.753906 -36.207031 21.765625 -35.875 C 22.773438 -35.539062 23.75 -35.003906 24.6875 -34.265625 C 25.09375 -33.960938 25.429688 -33.734375 25.703125 -33.578125 C 25.972656 -33.429688 26.191406 -33.359375 26.359375 -33.359375 C 26.828125 -33.359375 27.378906 -34.25 28.015625 -36.03125 Z M 29.03125 -36.03125 "/></g></g></g><g fill="#4682b4" fill-opacity="1"><g transform="translate(333.72388, 172.47922)"><g><path d="M 18.046875 -25.75 C 16.796875 -25.75 15.566406 -25.21875 14.359375 -24.15625 C 13.148438 -23.101562 12.066406 -21.6875 11.109375 -19.90625 C 10.148438 -18.125 9.382812 -16.125 8.8125 -13.90625 C 8.25 -11.6875 7.96875 -9.40625 7.96875 -7.0625 C 7.96875 -5.28125 8.316406 -3.992188 9.015625 -3.203125 C 9.722656 -2.410156 10.648438 -2.015625 11.796875 -2.015625 C 12.867188 -2.015625 13.957031 -2.332031 15.0625 -2.96875 C 16.175781 -3.613281 17.300781 -4.773438 18.4375 -6.453125 L 19.453125 -6.046875 C 18.773438 -4.941406 17.90625 -3.867188 16.84375 -2.828125 C 15.789062 -1.785156 14.566406 -0.9375 13.171875 -0.28125 C 11.785156 0.375 10.21875 0.703125 8.46875 0.703125 C 6.113281 0.703125 4.179688 0.0703125 2.671875 -1.1875 C 1.160156 -2.445312 0.40625 -4.40625 0.40625 -7.0625 C 0.40625 -8.707031 0.664062 -10.4375 1.1875 -12.25 C 1.707031 -14.0625 2.453125 -15.832031 3.421875 -17.5625 C 4.398438 -19.289062 5.59375 -20.84375 7 -22.21875 C 8.414062 -23.59375 10.015625 -24.691406 11.796875 -25.515625 C 13.578125 -26.335938 15.507812 -26.75 17.59375 -26.75 C 19.4375 -26.75 20.921875 -26.285156 22.046875 -25.359375 C 23.171875 -24.441406 23.734375 -23.296875 23.734375 -21.921875 C 23.734375 -21.015625 23.515625 -20.128906 23.078125 -19.265625 C 22.640625 -18.410156 22.039062 -17.707031 21.28125 -17.15625 C 20.53125 -16.601562 19.6875 -16.328125 18.75 -16.328125 C 17.9375 -16.328125 17.253906 -16.585938 16.703125 -17.109375 C 16.148438 -17.628906 15.875 -18.34375 15.875 -19.25 C 15.875 -20.625 16.332031 -21.804688 17.25 -22.796875 C 18.175781 -23.785156 19.242188 -24.429688 20.453125 -24.734375 C 20.191406 -25.078125 19.863281 -25.332031 19.46875 -25.5 C 19.082031 -25.664062 18.609375 -25.75 18.046875 -25.75 Z M 18.046875 -25.75 "/></g></g></g><g fill="#4682b4" fill-opacity="1"><g transform="translate(357.051352, 172.47922)"><g><path d="M 8.8125 -2.015625 C 9.351562 -2.015625 9.941406 -2.300781 10.578125 -2.875 C 11.222656 -3.445312 11.878906 -4.273438 12.546875 -5.359375 C 13.222656 -6.453125 13.878906 -7.785156 14.515625 -9.359375 C 15.148438 -10.941406 15.738281 -12.773438 16.28125 -14.859375 L 15.171875 -9.375 C 14.328125 -6.882812 13.398438 -4.898438 12.390625 -3.421875 C 11.390625 -1.941406 10.316406 -0.882812 9.171875 -0.25 C 8.023438 0.382812 6.832031 0.703125 5.59375 0.703125 C 3.707031 0.703125 2.296875 0.148438 1.359375 -0.953125 C 0.421875 -2.066406 -0.046875 -3.582031 -0.046875 -5.5 C -0.046875 -7.3125 0.257812 -9.207031 0.875 -11.1875 C 1.5 -13.164062 2.335938 -15.078125 3.390625 -16.921875 C 4.453125 -18.773438 5.644531 -20.441406 6.96875 -21.921875 C 8.300781 -23.398438 9.710938 -24.570312 11.203125 -25.4375 C 12.703125 -26.3125 14.175781 -26.75 15.625 -26.75 C 16.726562 -26.75 17.582031 -26.3125 18.1875 -25.4375 C 18.789062 -24.570312 18.976562 -23.210938 18.75 -21.359375 L 18.1875 -21.0625 C 18.351562 -22.269531 18.296875 -23.207031 18.015625 -23.875 C 17.734375 -24.550781 17.253906 -24.890625 16.578125 -24.890625 C 15.910156 -24.890625 15.164062 -24.503906 14.34375 -23.734375 C 13.519531 -22.960938 12.703125 -21.90625 11.890625 -20.5625 C 11.085938 -19.21875 10.335938 -17.695312 9.640625 -16 C 8.953125 -14.300781 8.40625 -12.519531 8 -10.65625 C 7.601562 -8.789062 7.40625 -6.953125 7.40625 -5.140625 C 7.40625 -3.992188 7.519531 -3.1875 7.75 -2.71875 C 7.988281 -2.25 8.34375 -2.015625 8.8125 -2.015625 Z M 19.5 -26 C 20.945312 -26.03125 22.257812 -26.101562 23.4375 -26.21875 C 24.613281 -26.34375 25.738281 -26.519531 26.8125 -26.75 L 20.203125 -4.28125 C 20.109375 -3.84375 20.035156 -3.429688 19.984375 -3.046875 C 19.929688 -2.660156 19.976562 -2.347656 20.125 -2.109375 C 20.28125 -1.878906 20.539062 -1.765625 20.90625 -1.765625 C 21.34375 -1.765625 21.832031 -2.023438 22.375 -2.546875 C 22.914062 -3.066406 23.46875 -4.132812 24.03125 -5.75 L 24.9375 -8.15625 L 25.90625 -8.15625 L 24.640625 -4.484375 C 24.171875 -3.109375 23.566406 -2.050781 22.828125 -1.3125 C 22.085938 -0.570312 21.296875 -0.0507812 20.453125 0.25 C 19.617188 0.550781 18.796875 0.703125 17.984375 0.703125 C 16.242188 0.703125 15.003906 0.179688 14.265625 -0.859375 C 13.753906 -1.597656 13.523438 -2.507812 13.578125 -3.59375 C 13.628906 -4.6875 13.859375 -5.941406 14.265625 -7.359375 Z M 19.5 -26 "/></g></g></g><g fill="#4682b4" fill-opacity="1"><g transform="translate(385.165239, 172.47922)"><g><path d="M 18.84375 -24.09375 C 18.175781 -24.09375 17.445312 -23.660156 16.65625 -22.796875 C 15.863281 -21.941406 15.070312 -20.773438 14.28125 -19.296875 C 13.5 -17.816406 12.753906 -16.132812 12.046875 -14.25 C 11.335938 -12.375 10.75 -10.410156 10.28125 -8.359375 L 11.1875 -13.5 C 12.257812 -16.65625 13.332031 -19.207031 14.40625 -21.15625 C 15.488281 -23.113281 16.625 -24.535156 17.8125 -25.421875 C 19.007812 -26.304688 20.28125 -26.75 21.625 -26.75 C 23.664062 -26.75 25.210938 -26.085938 26.265625 -24.765625 C 27.328125 -23.441406 27.859375 -21.519531 27.859375 -19 C 27.859375 -17.445312 27.648438 -15.769531 27.234375 -13.96875 C 26.816406 -12.175781 26.1875 -10.414062 25.34375 -8.6875 C 24.507812 -6.957031 23.476562 -5.382812 22.25 -3.96875 C 21.019531 -2.5625 19.613281 -1.429688 18.03125 -0.578125 C 16.457031 0.273438 14.710938 0.703125 12.796875 0.703125 C 11.722656 0.703125 10.738281 0.5 9.84375 0.09375 C 8.957031 -0.300781 8.3125 -0.835938 7.90625 -1.515625 L 8.265625 -2.3125 C 8.597656 -1.75 8.972656 -1.347656 9.390625 -1.109375 C 9.816406 -0.867188 10.296875 -0.75 10.828125 -0.75 C 11.835938 -0.75 12.8125 -1.148438 13.75 -1.953125 C 14.695312 -2.765625 15.582031 -3.84375 16.40625 -5.1875 C 17.226562 -6.53125 17.945312 -8.03125 18.5625 -9.6875 C 19.1875 -11.351562 19.664062 -13.066406 20 -14.828125 C 20.34375 -16.597656 20.515625 -18.289062 20.515625 -19.90625 C 20.515625 -21.550781 20.363281 -22.660156 20.0625 -23.234375 C 19.757812 -23.804688 19.351562 -24.09375 18.84375 -24.09375 Z M 10.28125 -33.15625 C 11.6875 -33.257812 13.003906 -33.425781 14.234375 -33.65625 C 15.460938 -33.894531 16.644531 -34.195312 17.78125 -34.5625 L 6.90625 3.78125 C 6.4375 5.53125 6.550781 6.671875 7.25 7.203125 C 7.957031 7.742188 9.132812 8.03125 10.78125 8.0625 L 10.484375 9.125 C 9.710938 9.09375 8.601562 9.050781 7.15625 9 C 5.707031 8.945312 4.160156 8.921875 2.515625 8.921875 C 1.171875 8.921875 -0.171875 8.945312 -1.515625 9 C -2.859375 9.050781 -3.878906 9.09375 -4.578125 9.125 L -4.28125 8.0625 C -3.070312 8.0625 -2.195312 7.832031 -1.65625 7.375 C -1.125 6.925781 -0.691406 6.113281 -0.359375 4.9375 Z M 0.546875 -17.640625 C 1.765625 -18.953125 2.910156 -20.253906 3.984375 -21.546875 C 5.054688 -22.835938 6.09375 -24.375 7.09375 -26.15625 C 8.101562 -27.9375 9.148438 -30.171875 10.234375 -32.859375 L 10.375 -32.046875 C 9.675781 -29.734375 8.847656 -27.691406 7.890625 -25.921875 C 6.929688 -24.160156 5.878906 -22.570312 4.734375 -21.15625 C 3.597656 -19.75 2.390625 -18.359375 1.109375 -16.984375 Z M 0.546875 -17.640625 "/></g></g></g><g fill="#4682b4" fill-opacity="1"><g transform="translate(414.538714, 172.47922)"><g><path d="M 6.59375 -10.9375 C 7.976562 -11.46875 9.289062 -12.066406 10.53125 -12.734375 C 11.769531 -13.410156 12.828125 -14.15625 13.703125 -14.96875 C 15.015625 -16.144531 16.066406 -17.515625 16.859375 -19.078125 C 17.648438 -20.640625 18.046875 -22.328125 18.046875 -24.140625 C 18.046875 -24.804688 17.976562 -25.25 17.84375 -25.46875 C 17.707031 -25.6875 17.503906 -25.796875 17.234375 -25.796875 C 16.492188 -25.796875 15.695312 -25.414062 14.84375 -24.65625 C 13.988281 -23.90625 13.140625 -22.898438 12.296875 -21.640625 C 11.453125 -20.378906 10.6875 -18.941406 10 -17.328125 C 9.3125 -15.722656 8.753906 -14.046875 8.328125 -12.296875 C 7.910156 -10.546875 7.703125 -8.847656 7.703125 -7.203125 C 7.703125 -5.328125 8.0625 -4.039062 8.78125 -3.34375 C 9.507812 -2.65625 10.445312 -2.3125 11.59375 -2.3125 C 12.5 -2.3125 13.625 -2.613281 14.96875 -3.21875 C 16.3125 -3.820312 17.640625 -4.898438 18.953125 -6.453125 L 19.75 -6.046875 C 19.039062 -4.941406 18.113281 -3.867188 16.96875 -2.828125 C 15.832031 -1.785156 14.507812 -0.9375 13 -0.28125 C 11.488281 0.375 9.84375 0.703125 8.0625 0.703125 C 6.550781 0.703125 5.195312 0.4375 4 -0.09375 C 2.8125 -0.632812 1.875 -1.429688 1.1875 -2.484375 C 0.5 -3.546875 0.15625 -4.851562 0.15625 -6.40625 C 0.15625 -8.1875 0.445312 -10.015625 1.03125 -11.890625 C 1.625 -13.773438 2.457031 -15.597656 3.53125 -17.359375 C 4.601562 -19.117188 5.894531 -20.710938 7.40625 -22.140625 C 8.914062 -23.566406 10.59375 -24.691406 12.4375 -25.515625 C 14.289062 -26.335938 16.257812 -26.75 18.34375 -26.75 C 19.820312 -26.75 21.0625 -26.421875 22.0625 -25.765625 C 23.070312 -25.117188 23.578125 -24.125 23.578125 -22.78125 C 23.578125 -21.46875 23.21875 -20.238281 22.5 -19.09375 C 21.78125 -17.957031 20.8125 -16.914062 19.59375 -15.96875 C 18.382812 -15.03125 17.03125 -14.191406 15.53125 -13.453125 C 14.039062 -12.710938 12.515625 -12.070312 10.953125 -11.53125 C 9.390625 -11 7.921875 -10.582031 6.546875 -10.28125 Z M 6.59375 -10.9375 "/></g></g></g><g fill="#eb648d" fill-opacity="1"><g transform="translate(3.353246, 166.844751)"><g><path d="M 250.4375 -129.890625 C 250.9375 -129.890625 251.1875 -129.6875 251.1875 -129.28125 C 251.1875 -128.875 250.9375 -128.671875 250.4375 -128.671875 C 245.03125 -128.671875 240.519531 -127.148438 236.90625 -124.109375 C 233.300781 -121.078125 230.757812 -117.390625 229.28125 -113.046875 C 227.8125 -108.703125 227.484375 -104.3125 228.296875 -99.875 C 229.117188 -95.445312 231.25 -91.71875 234.6875 -88.6875 C 238.132812 -85.65625 243.054688 -84.140625 249.453125 -84.140625 C 255.359375 -84.140625 260.523438 -85.65625 264.953125 -88.6875 C 269.378906 -91.71875 272.945312 -95.613281 275.65625 -100.375 C 278.363281 -105.132812 280.003906 -110.132812 280.578125 -115.375 C 281.148438 -120.625 280.535156 -125.625 278.734375 -130.375 C 276.929688 -135.132812 273.816406 -139.03125 269.390625 -142.0625 C 264.960938 -145.101562 258.972656 -146.625 251.421875 -146.625 C 240.765625 -146.625 231.457031 -144 223.5 -138.75 C 215.550781 -133.5 208.210938 -126.773438 201.484375 -118.578125 C 205.585938 -109.554688 207.554688 -99.382812 207.390625 -88.0625 C 207.222656 -76.75 204.925781 -65.429688 200.5 -54.109375 C 196.070312 -42.796875 189.675781 -32.382812 181.3125 -22.875 C 172.945312 -13.363281 162.613281 -5.695312 150.3125 0.125 C 138.007812 5.945312 123.820312 8.859375 107.75 8.859375 C 102.832031 8.859375 98.238281 8.320312 93.96875 7.25 C 89.707031 6.1875 85.691406 4.914062 81.921875 3.4375 C 74.378906 5.40625 66.34375 6.390625 57.8125 6.390625 C 49.125 6.390625 42.644531 5.53125 38.375 3.8125 C 34.113281 2.09375 31.613281 0.164062 30.875 -1.96875 C 30.132812 -4.101562 30.867188 -6.03125 33.078125 -7.75 C 35.296875 -9.46875 38.457031 -10.328125 42.5625 -10.328125 C 49.613281 -10.328125 56.253906 -8.972656 62.484375 -6.265625 C 68.722656 -3.566406 75.117188 -0.90625 81.671875 1.71875 C 91.679688 -1.226562 100.582031 -5.734375 108.375 -11.796875 C 116.164062 -17.867188 123.421875 -25.003906 130.140625 -33.203125 C 136.867188 -41.410156 143.429688 -50.023438 149.828125 -59.046875 C 157.535156 -70.191406 165.320312 -81.34375 173.1875 -92.5 C 181.0625 -103.65625 189.265625 -113.5 197.796875 -122.03125 C 193.691406 -129.40625 187.828125 -135.390625 180.203125 -139.984375 C 172.578125 -144.578125 163.1875 -146.875 152.03125 -146.875 C 145.632812 -146.875 140.179688 -146.335938 135.671875 -145.265625 C 131.160156 -144.203125 128.90625 -143.671875 128.90625 -143.671875 C 132.6875 -138.585938 135.476562 -132.890625 137.28125 -126.578125 C 139.082031 -120.265625 139.984375 -113.742188 139.984375 -107.015625 C 139.984375 -97.671875 138.546875 -88.40625 135.671875 -79.21875 C 132.804688 -70.03125 128.664062 -61.625 123.25 -54 C 117.84375 -46.375 111.40625 -40.265625 103.9375 -35.671875 C 96.476562 -31.078125 88.15625 -28.78125 78.96875 -28.78125 L 78.234375 -28.78125 C 74.296875 -26.644531 69.988281 -24.878906 65.3125 -23.484375 C 60.644531 -22.097656 55.4375 -21.40625 49.6875 -21.40625 C 37.394531 -21.40625 27.472656 -23.988281 19.921875 -29.15625 C 12.378906 -34.320312 7.050781 -41.125 3.9375 -49.5625 C 0.820312 -58.007812 -0.328125 -67.316406 0.484375 -77.484375 C 1.304688 -87.660156 3.847656 -97.832031 8.109375 -108 C 12.378906 -118.164062 18.242188 -127.472656 25.703125 -135.921875 C 33.171875 -144.367188 41.90625 -151.175781 51.90625 -156.34375 C 61.914062 -161.507812 73.070312 -164.09375 85.375 -164.09375 C 95.039062 -164.09375 103.398438 -162.410156 110.453125 -159.046875 C 117.515625 -155.679688 123.257812 -151.128906 127.6875 -145.390625 C 127.6875 -145.390625 130.019531 -145.878906 134.6875 -146.859375 C 139.363281 -147.847656 145.144531 -148.34375 152.03125 -148.34375 C 163.519531 -148.34375 173.15625 -146.046875 180.9375 -141.453125 C 188.726562 -136.867188 194.757812 -130.800781 199.03125 -123.25 C 206.738281 -130.632812 214.851562 -136.617188 223.375 -141.203125 C 231.90625 -145.796875 241.253906 -148.09375 251.421875 -148.09375 C 259.296875 -148.09375 265.609375 -146.535156 270.359375 -143.421875 C 275.117188 -140.304688 278.441406 -136.25 280.328125 -131.25 C 282.210938 -126.25 282.867188 -120.957031 282.296875 -115.375 C 281.722656 -109.800781 280.039062 -104.515625 277.25 -99.515625 C 274.46875 -94.515625 270.695312 -90.453125 265.9375 -87.328125 C 261.1875 -84.210938 255.691406 -82.65625 249.453125 -82.65625 C 242.734375 -82.65625 237.523438 -84.253906 233.828125 -87.453125 C 230.140625 -90.648438 227.84375 -94.585938 226.9375 -99.265625 C 226.039062 -103.941406 226.367188 -108.613281 227.921875 -113.28125 C 229.484375 -117.957031 232.191406 -121.894531 236.046875 -125.09375 C 239.898438 -128.289062 244.695312 -129.890625 250.4375 -129.890625 Z M 75.765625 -29.03125 C 68.222656 -29.6875 62.523438 -32.515625 58.671875 -37.515625 C 54.816406 -42.515625 52.765625 -48.867188 52.515625 -56.578125 C 52.273438 -64.285156 53.671875 -72.609375 56.703125 -81.546875 C 59.742188 -90.492188 64.421875 -99.226562 70.734375 -107.75 C 77.046875 -116.28125 84.832031 -123.863281 94.09375 -130.5 C 103.363281 -137.144531 113.984375 -142.03125 125.953125 -145.15625 C 121.859375 -150.394531 116.40625 -154.613281 109.59375 -157.8125 C 102.789062 -161.007812 94.71875 -162.609375 85.375 -162.609375 C 73.394531 -162.609375 62.484375 -160.066406 52.640625 -154.984375 C 42.804688 -149.898438 34.238281 -143.21875 26.9375 -134.9375 C 19.632812 -126.65625 13.851562 -117.550781 9.59375 -107.625 C 5.332031 -97.707031 2.789062 -87.785156 1.96875 -77.859375 C 1.144531 -67.941406 2.25 -58.835938 5.28125 -50.546875 C 8.320312 -42.265625 13.488281 -35.582031 20.78125 -30.5 C 28.082031 -25.414062 37.71875 -22.875 49.6875 -22.875 C 54.9375 -22.875 59.734375 -23.445312 64.078125 -24.59375 C 68.429688 -25.75 72.328125 -27.226562 75.765625 -29.03125 Z M 107.515625 -64.453125 C 107.515625 -63.304688 106.609375 -60.765625 104.796875 -56.828125 C 102.992188 -52.890625 100.164062 -48.539062 96.3125 -43.78125 C 92.457031 -39.03125 87.578125 -34.6875 81.671875 -30.75 C 90.035156 -31.082031 97.660156 -33.539062 104.546875 -38.125 C 111.441406 -42.71875 117.390625 -48.664062 122.390625 -55.96875 C 127.390625 -63.269531 131.242188 -71.347656 133.953125 -80.203125 C 136.660156 -89.054688 138.015625 -97.992188 138.015625 -107.015625 C 138.015625 -113.742188 137.148438 -120.222656 135.421875 -126.453125 C 133.703125 -132.679688 131.039062 -138.257812 127.4375 -143.1875 C 116.613281 -139.90625 106.9375 -134.941406 98.40625 -128.296875 C 89.875 -121.648438 82.65625 -114.144531 76.75 -105.78125 C 70.851562 -97.414062 66.34375 -88.882812 63.21875 -80.1875 C 60.101562 -71.5 58.546875 -63.460938 58.546875 -56.078125 C 58.546875 -48.703125 60.226562 -42.71875 63.59375 -38.125 C 66.957031 -33.539062 72.082031 -31.082031 78.96875 -30.75 C 84.050781 -34.03125 88.109375 -37.757812 91.140625 -41.9375 C 94.179688 -46.125 96.4375 -50.265625 97.90625 -54.359375 C 99.382812 -58.460938 100.125 -61.910156 100.125 -64.703125 C 100.125 -65.523438 100.453125 -66.265625 101.109375 -66.921875 C 101.765625 -67.578125 102.664062 -67.90625 103.8125 -67.90625 C 106.28125 -67.90625 107.515625 -66.753906 107.515625 -64.453125 Z M 108 7.375 C 123.414062 7.375 137.109375 4.546875 149.078125 -1.109375 C 161.054688 -6.765625 171.1875 -14.222656 179.46875 -23.484375 C 187.75 -32.753906 194.101562 -42.925781 198.53125 -54 C 202.957031 -65.070312 205.332031 -76.101562 205.65625 -87.09375 C 205.988281 -98.082031 204.1875 -108.085938 200.25 -117.109375 C 193.695312 -108.742188 187.34375 -99.394531 181.1875 -89.0625 C 175.039062 -78.726562 168.359375 -68.476562 161.140625 -58.3125 C 154.742188 -49.289062 147.734375 -40.675781 140.109375 -32.46875 C 132.484375 -24.269531 124.078125 -17.09375 114.890625 -10.9375 C 105.703125 -4.789062 95.613281 -0.242188 84.625 2.703125 C 88.238281 4.015625 91.972656 5.117188 95.828125 6.015625 C 99.679688 6.921875 103.738281 7.375 108 7.375 Z M 58.0625 4.921875 C 61.832031 4.921875 65.476562 4.671875 69 4.171875 C 72.53125 3.679688 75.851562 3.109375 78.96875 2.453125 C 72.90625 -0.00390625 66.960938 -2.503906 61.140625 -5.046875 C 55.316406 -7.585938 49.125 -8.859375 42.5625 -8.859375 C 38.945312 -8.859375 36.195312 -8.160156 34.3125 -6.765625 C 32.425781 -5.367188 31.8125 -3.769531 32.46875 -1.96875 C 33.125 -0.164062 35.503906 1.429688 39.609375 2.828125 C 43.710938 4.222656 49.863281 4.921875 58.0625 4.921875 Z M 58.0625 4.921875 "/></g></g></g></svg>